# xmcd
#
# Track frame offsets:
#	150
#	19622
#	34612
#	51610
#	71357
#	88807
#	101087
#	119522
#	134342
#	160205
#	170357
#	188997
#	205090
#	225340
#
# Disc length: 3209 seconds
#
# Revision: 1
# Processed by: cddbd v1.4PL0 Copyright (c) Steve Scherf et al.
# Submitted via: audiograbber 1.81.02
#
DISCID=bc0c870e
DTITLE=Early Bird - On The Wing
DYEAR=1994
DGENRE=Country
TTITLE0=My Beautifull Lady
TTITLE1=You're still on my mind
TTITLE2=You just need me
TTITLE3=Lonesome road to nowhere
TTITLE4=Take me back
TTITLE5=Why tell me why
TTITLE6=Whisper of the sea
TTITLE7=I never fall in love again
TTITLE8=Manana
TTITLE9=Wild blue yonder
TTITLE10=Hello sweetheart
TTITLE11=On our way to heaven
TTITLE12=I did it just for you
TTITLE13=The curtain is falling
EXTD=
EXTT0=
EXTT1=
EXTT2=
EXTT3=
EXTT4=
EXTT5=
EXTT6=
EXTT7=
EXTT8=
EXTT9=
EXTT10=
EXTT11=
EXTT12=
EXTT13=
PLAYORDER=
